Coordinates
version=1
nRows=15
nColumns=26
inDegrees=yes

Units are S.I. units (second, meters, Newtons, ...)
Angles are in degrees.

endheader
time	pelvis_tilt	pelvis_list	pelvis_rotation	pelvis_tx	pelvis_ty	pelvis_tz	hip_flexion_r	hip_adduction_r	hip_rotation_r	knee_angle_r	knee_angle_r_beta	ankle_angle_r	subtalar_angle_r	mtp_angle_r	hip_flexion_l	hip_adduction_l	hip_rotation_l	knee_angle_l	knee_angle_l_beta	ankle_angle_l	subtalar_angle_l	mtp_angle_l	lumbar_extension	lumbar_bending	lumbar_rotation
      0.40000000	     -4.21441437	      0.43304060	      6.23349233	      2.52918252	      0.96112689	      1.25265235	      5.72637644	      1.16836970	     -7.03233271	      3.18473400	      0.05558409	     14.81005272	     -7.97595629	      0.00000000	     22.20880446	     -5.73609622	     -4.56557177	     48.52952447	      0.84699999	      3.75674059	    -19.76887758	      0.00000000	      0.00000000	      0.00000000	      0.00000000
      0.40666667	     -4.29129710	      0.36437885	      6.17133884	      2.52859087	      0.96094234	      1.25302576	      5.61557883	      1.28213875	     -7.10827984	      3.13340486	      0.05468823	     14.92083569	     -7.96495759	      0.00000000	     22.56873008	     -5.70825268	     -4.74439083	     47.65775839	      0.83178480	      3.88374417	    -19.86128341	      0.00000000	      0.00000000	      0.00000000	      0.00000000
      0.41333333	     -4.23318515	      0.60606889	      6.05958116	      2.52800994	      0.96110627	      1.25334951	      5.36282979	      1.05812740	     -7.04951415	      3.14454332	      0.05488263	     15.15778313	     -7.72214820	      0.00000000	     22.55972583	     -5.29115661	     -4.98536524	     46.47069309	      0.81106660	      3.96792874	    -20.40337063	      0.00000000	      0.00000000	      0.00000000	      0.00000000
      0.42000000	     -4.22783408	      0.70807586	      5.99160480	      2.52744474	      0.96106718	      1.25366250	      5.17392148	      0.96688879	     -7.19516423	      3.19794298	      0.05581463	     15.26567612	     -7.64095402	      0.00000000	     22.70386723	     -5.03497319	     -5.17308829	     45.37805265	      0.79199643	      4.00588748	    -20.76765605	      0.00000000	      0.00000000	      0.00000000	      0.00000000
      0.42666667	     -4.19307192	      0.79433518	      5.88765144	      2.52687738	      0.96107551	      1.25401209	      4.91245659	      0.94375394	     -7.15533216	      3.06790555	      0.05354505	     15.45187105	     -7.02943765	      0.00000000	     22.81047784	     -4.81324447	     -5.40779925	     44.24174433	      0.77216411	      3.84284558	    -21.27586482	      0.00000000	      0.00000000	      0.00000000	      0.00000000
      0.43333333	     -4.20991095	      0.84460277	      5.81207760	      2.52631689	      0.96100865	      1.25431927	      4.73722116	      0.90629051	     -7.27474628	      3.07095624	      0.05359830	     15.78224513	     -6.99015330	      0.00000000	     22.96436432	     -4.59482340	     -5.56686491	     43.10149144	      0.75226294	      3.95357996	    -21.49959131	      0.00000000	      0.00000000	      0.00000000	      0.00000000
      0.44000000	     -4.21170320	      0.89136601	      5.71205071	      2.52578774	      0.96086459	      1.25466659	      4.54673783	      0.89975138	     -7.31322083	      3.04094439	      0.05307449	     15.98792621	     -6.80464651	      0.00000000	     23.12919895	     -4.40714415	     -5.75758578	     42.00526224	      0.73313013	      4.01148993	    -21.70445691	      0.00000000	      0.00000000	      0.00000000	      0.00000000
      0.44666667	     -4.28893298	      0.76685133	      5.63752368	      2.52520303	      0.96055616	      1.25501381	      4.43839505	      1.07726991	     -7.39730853	      2.97305410	      0.05188958	     16.12413632	     -6.78485712	      0.00000000	     23.44104775	     -4.44117402	     -5.97499728	     40.99521331	      0.71550145	      4.07002571	    -21.71949095	      0.00000000	      0.00000000	      0.00000000	      0.00000000
      0.45333333	     -4.11543840	      1.02695900	      5.54952496	      2.52469437	      0.96078399	      1.25523250	      4.03240152	      0.83831094	     -7.40432314	      2.95393292	      0.05155586	     16.47240474	     -6.43337554	      0.00000000	     23.26931081	     -3.99189731	     -6.18345470	     39.67021235	      0.69237582	      3.96242017	    -22.02705916	      0.00000000	      0.00000000	      0.00000000	      0.00000000
      0.46000000	     -4.19830841	      1.07034879	      5.45038625	      2.52406874	      0.96051717	      1.25558803	      3.94402111	      0.81854919	     -7.40379917	      2.95958637	      0.05165453	     16.56917613	     -6.25956165	      0.00000000	     23.51883762	     -3.80048429	     -6.34719310	     38.55023617	      0.67282855	      4.00281493	    -21.97405134	      0.00000000	      0.00000000	      0.00000000	      0.00000000
      0.46666667	     -4.19401873	      1.12253407	      5.39019251	      2.52347807	      0.96036739	      1.25580636	      3.73377323	      0.78776385	     -7.41863647	      2.92847351	      0.05111150	     16.80326728	     -6.08001506	      0.00000000	     23.64389602	     -3.56675630	     -6.41617539	     37.39024219	      0.65258283	      4.14060382	    -21.85136454	      0.00000000	      0.00000000	      0.00000000	      0.00000000
      0.47333333	     -4.17023765	      1.16214156	      5.33005903	      2.52295456	      0.96023823	      1.25600798	      3.50691998	      0.77794234	     -7.47350579	      2.90451205	      0.05069330	     17.01804664	     -5.91921630	      0.00000000	     23.80231366	     -3.36867218	     -6.56416349	     36.29523919	      0.63347143	      4.15733750	    -21.72086225	      0.00000000	      0.00000000	      0.00000000	      0.00000000
      0.48000000	     -4.07470058	      1.20629865	      5.25235413	      2.52240895	      0.96019537	      1.25627440	      3.19930163	      0.76719860	     -7.52631367	      2.86758100	      0.05004873	     17.25915421	     -5.65089742	      0.00000000	     23.82130606	     -3.19664292	     -6.73965877	     35.14301534	      0.61336133	      4.20625813	    -21.46042980	      0.00000000	      0.00000000	      0.00000000	      0.00000000
      0.48666667	     -4.07991058	      1.24191347	      5.17001167	      2.52191725	      0.95999688	      1.25657553	      3.00814548	      0.76418938	     -7.52209723	      2.84679171	      0.04968589	     17.41372927	     -5.53941277	      0.00000000	     23.98935644	     -3.01868063	     -6.83935128	     34.06556522	      0.59455627	      4.28501274	    -21.25904863	      0.00000000	      0.00000000	      0.00000000	      0.00000000
      0.49333333	     -4.00349067	      1.28894630	      5.14316692	      2.52140134	      0.95995164	      1.25670638	      2.70379650	      0.75164555	     -7.54653968	      2.78026695	      0.04852481	     17.50719666	     -5.44648817	      0.00000000	     24.02177623	     -2.78793710	     -6.88269244	     32.88878007	      0.57401750	      4.28437898	    -20.84319650	      0.00000000	      0.00000000	      0.00000000	      0.00000000
